<svg width="41" height="28" viewBox="0 0 41 28" fill="none" xmlns="http://www.w3.org/2000/svg">
<path d="M40.5328 27.2052C40.4917 27.2072 40.4506 27.211 40.4095 27.211C38.8447 27.2113 37.2799 27.2113 35.7152 27.2113H35.5779V27.0576C35.5779 25.2038 35.5739 23.35 35.5792 21.4962C35.5833 20.0255 35.1186 18.7197 34.2261 17.559C34.189 17.5108 34.1522 17.4623 34.1282 17.3858C34.4439 17.4552 34.7623 17.5138 35.0746 17.5957C36.466 17.9603 37.7771 18.5052 38.9479 19.3553C39.3675 19.66 39.7465 20.0091 40.0517 20.4317C40.2889 20.7604 40.4617 21.1177 40.5152 21.5251C40.5167 21.5361 40.5268 21.546 40.5328 21.5565V27.2052Z" fill="white"/>
<path d="M32.2765 27.2049H9.14931V27.0444C9.14931 25.2526 9.16543 23.4607 9.14299 21.6693C9.13045 20.6685 9.49592 19.848 10.1761 19.1437C10.7768 18.5218 11.4901 18.0568 12.2533 17.6637C13.6296 16.9547 15.0932 16.495 16.5983 16.1573C17.7271 15.904 18.8683 15.7323 20.0244 15.6713C20.8216 15.6291 21.6165 15.6661 22.41 15.7539C23.8034 15.9079 25.1703 16.1883 26.5099 16.5997C27.7357 16.9761 28.9206 17.4484 30.006 18.1426C30.6717 18.5683 31.2736 19.0659 31.7236 19.7265C32.0891 20.2628 32.2783 20.853 32.2774 21.5052C32.2749 23.3588 32.2765 25.2125 32.2765 27.0661V27.2049Z" fill="white"/>
<path d="M20.7124 0.789063C23.9079 0.788542 26.4928 3.37444 26.4912 6.56996C26.4895 9.76555 23.8986 12.3531 20.7073 12.3463C17.5087 12.3395 14.9294 9.75347 14.9347 6.55866C14.94 3.36777 17.5218 0.789583 20.7124 0.789063Z" fill="white"/>
<path d="M12.4559 9.86975C12.4561 12.1458 10.6067 13.9971 8.32972 14C6.04989 14.0028 4.18987 12.1432 4.1949 9.86596C4.19995 7.58646 6.049 5.74224 8.32736 5.74431C10.6085 5.74639 12.4558 7.59226 12.4559 9.86975Z" fill="white"/>
<path d="M37.2308 9.87625C37.2221 12.1628 35.3657 14.0095 33.0857 13.9999C30.8087 13.9903 28.9562 12.1268 28.9698 9.85947C28.9835 7.5746 30.8337 5.73508 33.1088 5.74431C35.3935 5.75359 37.2396 7.60407 37.2308 9.87625Z" fill="white"/>
<path d="M7.29649 17.3993C7.08506 17.7203 6.86477 18.0246 6.67573 18.3473C6.11038 19.3123 5.84573 20.3597 5.84725 21.4774C5.84979 23.335 5.84794 25.1926 5.84794 27.0501C5.84794 27.0988 5.84794 27.1474 5.84794 27.2036H0.893056C0.893056 27.149 0.893056 27.1005 0.893056 27.052C0.893056 25.3678 0.90696 23.6834 0.886483 21.9995C0.877817 21.2867 1.12271 20.6967 1.57828 20.1737C2.10345 19.5708 2.74854 19.1215 3.44277 18.74C4.58933 18.1099 5.80765 17.6755 7.09316 17.4309C7.16158 17.4179 7.23086 17.4094 7.29649 17.3993Z" fill="white"/>
</svg>
