<svg width="31" height="44" viewBox="0 0 31 44" fill="none" xmlns="http://www.w3.org/2000/svg">
<path d="M17.8098 43.9993C17.8098 43.919 17.8098 43.8483 17.8098 43.7775C17.8098 40.5942 17.8094 37.4108 17.8101 34.2275C17.8102 33.689 17.7338 33.1648 17.5185 32.6679C17.4831 32.5863 17.4252 32.5044 17.3565 32.4487C15.2636 30.7527 13.1665 29.0619 11.0735 27.3659C10.0826 26.563 9.47626 25.5354 9.31813 24.2625C9.2484 23.7013 9.28969 23.1428 9.45027 22.5974C10.7241 18.2701 11.8498 13.879 13.2025 9.57767C13.9785 9.82965 14.7389 10.0801 15.5017 10.3231C16.1284 10.5227 16.7697 10.6826 17.3842 10.9139C19.1093 11.5632 20.5989 12.574 21.8634 13.9166C22.3271 14.4089 22.8084 14.8848 23.2664 15.3822C23.5607 15.7019 23.8942 15.8043 24.3188 15.7155C25.7917 15.4076 27.2676 15.114 28.7422 14.8144C28.7579 14.8113 28.7723 14.8019 28.8043 14.788V11.0336H31V44H28.8132V19.3382C28.4798 19.4027 28.1653 19.4645 27.8505 19.5245C26.874 19.7103 25.9039 19.9483 24.9195 20.0694C23.1031 20.2929 21.5065 19.7662 20.1845 18.4804C19.5696 17.8823 18.9691 17.2695 18.3643 16.661C18.3226 16.619 18.3 16.558 18.2686 16.5058C18.25 16.5188 18.2314 16.5318 18.2129 16.5448C18.0867 16.9872 17.9603 17.4295 17.8345 17.872C17.2669 19.8674 16.7006 21.8632 16.1289 23.8575C16.0956 23.9739 16.117 24.0479 16.1933 24.1362C17.5522 25.7087 18.9093 27.2827 20.2638 28.8589C21.5316 30.3343 22.1844 32.0551 22.199 33.9915C22.2239 37.2901 22.2066 40.589 22.2069 43.8878C22.2069 43.9205 22.2035 43.9533 22.2009 43.9993H17.8098Z" fill="white"/>
<path d="M11.183 9.17584C11.0499 9.62316 10.9337 10.0169 10.8157 10.41C9.77308 13.8835 8.72948 17.3567 7.6876 20.8304C7.38434 21.8415 6.83707 22.6714 5.90966 23.2134C4.47159 24.0537 2.51633 23.7925 1.27394 22.5941C0.448904 21.7983 -0.00860117 20.8372 0.000122503 19.6761C0.00338131 19.2422 0.131859 18.8332 0.254889 18.4222C0.648271 17.1081 1.02678 15.7896 1.42755 14.4778C1.96901 12.7054 3.03974 11.3218 4.58074 10.3053C6.14339 9.2746 7.87255 8.84865 9.73444 8.9734C10.2082 9.00515 10.6774 9.10329 11.183 9.17584Z" fill="white"/>
<path d="M17.8923 0.00302159C20.3837 0.0959663 22.269 2.1253 22.1714 4.60913C22.077 7.01122 20.0235 8.88171 17.5742 8.79659C15.2144 8.71459 13.2898 6.64959 13.375 4.29108C13.4639 1.83352 15.4868 -0.0867188 17.8923 0.00302159Z" fill="white"/>
<path d="M9.86775 29.8999C10.3 30.2804 10.7164 30.6462 11.1321 31.0129C11.8413 31.6386 12.5486 32.2664 13.2609 32.8885C13.3497 32.9661 13.3653 33.0286 13.325 33.1393C12.0283 36.7031 10.7352 40.2682 9.44266 43.8335C9.40969 43.9245 9.38706 43.9949 9.25857 43.9945C7.80656 43.9892 6.35452 43.9912 4.90249 43.9908C4.87045 43.9908 4.83841 43.9861 4.78284 43.9817C6.47842 39.2861 8.16985 34.602 9.86775 29.8999Z" fill="white"/>
</svg>
