<svg width="39" height="38" viewBox="0 0 39 38" fill="none" xmlns="http://www.w3.org/2000/svg">
<path d="M34.292 16.2655C34.862 18.3582 35.0444 20.4758 34.794 22.6228C34.2923 26.9232 32.4447 30.5515 29.2615 33.4841C23.198 39.0705 13.9193 39.5269 7.28095 34.5575C0.506826 29.4864 -1.49723 20.5005 2.08186 13.1906C5.83411 5.52695 13.6178 2.81539 19.4929 3.57789C19.4634 3.81189 19.4364 4.04642 19.4039 4.28017C19.3302 4.80998 19.3738 5.33816 19.4248 5.86586C19.6125 7.80424 20.4266 9.48878 21.5373 11.0513C22.202 11.9865 22.9629 12.8396 23.7779 13.6455C23.8301 13.6971 23.8828 13.7482 23.9347 13.8002C23.94 13.8055 23.9415 13.8149 23.9488 13.8316C22.959 13.7583 22.1557 14.1069 21.5664 14.9023C21.1548 15.458 21.0067 16.0936 21.1045 16.7764C21.3005 18.1442 22.536 19.1429 23.9668 18.9828C25.4897 18.8123 26.5771 17.3185 26.184 15.7772C26.4919 16.0072 26.7897 16.2349 27.0928 16.4552C28.2345 17.2849 29.3784 18.1118 30.5199 18.9418C30.5823 18.9872 30.6245 18.9909 30.6874 18.9425M8.80757 24.1851C10.1733 27.7913 14.1135 30.8042 18.9611 30.1259C21.1658 29.8174 23.0237 28.818 24.5461 27.1991C25.3715 26.3214 26.0007 25.3176 26.4452 24.1851H8.80757ZM11.5772 18.9977C13.0065 18.9963 14.1636 17.8429 14.1686 16.4143C14.1736 14.9887 13.0039 13.8181 11.5738 13.8176C10.1486 13.8171 8.98905 14.9766 8.98656 16.4047C8.98407 17.8407 10.1414 18.9991 11.5772 18.9977Z" fill="white"/>
<path d="M38.3333 5.02883C38.3234 6.18391 37.9816 7.24302 37.3991 8.23083C36.7353 9.35661 35.8557 10.3022 34.9272 11.2113C33.6416 12.4701 32.1984 13.5282 30.7386 14.5681C30.6138 14.657 30.5393 14.655 30.4211 14.5655C29.4924 13.8621 28.5329 13.1967 27.6329 12.4588C26.5477 11.5689 25.527 10.6034 24.6463 9.5026C23.9651 8.65125 23.3888 7.74003 23.0788 6.68259C22.6903 5.35706 22.7115 4.05293 23.359 2.8088C24.1501 1.28857 25.3956 0.354404 27.0933 0.0660814C28.2916 -0.137433 29.4079 0.140742 30.4495 0.740725C30.5513 0.799401 30.6023 0.799593 30.7023 0.742353C31.6379 0.206562 32.6398 -0.0927221 33.7241 0.02891C35.8754 0.270233 37.3077 1.44946 38.0751 3.4533C38.268 3.95699 38.335 4.48889 38.3333 5.02883ZM30.5883 10.3548C30.6114 10.3389 30.6326 10.3247 30.6533 10.3098C31.6627 9.58184 32.5622 8.73242 33.4001 7.81633C33.8967 7.27339 34.3529 6.69753 34.6618 6.02425C34.7719 5.78443 34.8726 5.52472 34.9006 5.26578C34.9877 4.45973 34.4233 3.70448 33.609 3.50231C33.1375 3.38525 32.7037 3.4996 32.3011 3.75642C31.7592 4.10205 31.2163 4.4461 30.676 4.79427C30.6054 4.83974 30.5569 4.84494 30.4819 4.79634C29.9172 4.43046 29.3529 4.06342 28.7798 3.71086C28.1768 3.3399 27.5172 3.37638 26.9477 3.7918C26.3129 4.25489 26.0785 5.00038 26.3715 5.72837C26.5025 6.05408 26.6733 6.36848 26.8613 6.66569C27.2975 7.35512 27.8563 7.94522 28.4319 8.5187C29.0993 9.18358 29.7991 9.81089 30.5883 10.3548Z" fill="white"/>
</svg>
