<svg width="41" height="38" viewBox="0 0 41 38" fill="none" xmlns="http://www.w3.org/2000/svg">
<path d="M34.2958 38C34.1702 37.7993 34.0503 37.607 33.9297 37.4152C32.7324 35.5108 31.5439 33.6014 30.4995 31.6065C29.7278 30.1327 29.0001 28.639 28.46 27.0614C28.239 26.4158 28.0492 25.7614 27.9748 25.0801C27.881 24.2209 27.9837 23.3796 28.2684 22.5675C28.9818 20.5324 30.3579 19.1275 32.4169 18.5032C34.8441 17.7673 37.0101 18.3338 38.8274 20.1063C39.8675 21.1207 40.4411 22.3866 40.6263 23.8282C40.7405 24.7163 40.6009 25.5768 40.3499 26.426C39.9389 27.8164 39.349 29.1337 38.7096 30.4301C37.6287 32.6214 36.3811 34.7174 35.0752 36.7799C34.8248 37.1754 34.5788 37.5736 34.3304 37.9703C34.326 37.9774 34.3174 37.9818 34.2958 38Z" fill="white"/>
<path d="M7.03494 19.8083C7.00722 19.7704 6.99051 19.7504 6.97686 19.7285C5.84256 17.9084 4.68532 16.1021 3.66085 14.2158C2.78447 12.6021 1.95394 10.9668 1.31905 9.23955C1.06176 8.53957 0.840343 7.82872 0.728344 7.08861C0.588049 6.16152 0.691422 5.254 0.992821 4.37305C1.60897 2.57213 2.7976 1.28367 4.53499 0.516031C7.11417 -0.623546 10.2558 0.17718 11.9991 2.39659C12.7473 3.34922 13.1981 4.42227 13.3522 5.62276C13.4669 6.51552 13.3269 7.38003 13.0741 8.23362C12.6623 9.62386 12.0718 10.9406 11.4326 12.2371C10.3562 14.4203 9.11253 16.5079 7.81313 18.5635C7.55587 18.9705 7.30257 19.3799 7.03494 19.8083Z" fill="white"/>
<path d="M17.0268 23.6702V27.2874H13.401V23.6702H17.0268Z" fill="white"/>
<path d="M9.75259 23.6702V27.2904H6.1332V23.6702H9.75259Z" fill="white"/>
<path d="M20.6744 23.6688H24.294V27.2917H20.6744V23.6688Z" fill="white"/>
</svg>
