<svg width="30" height="38" viewBox="0 0 30 38" fill="none" xmlns="http://www.w3.org/2000/svg">
<path d="M9.38134 38H5.63121C5.63121 37.9312 5.63121 37.8671 5.63121 37.8031C5.63121 31.5092 5.6305 25.2154 5.63534 18.9215C5.63546 18.7666 5.58454 18.7195 5.44755 18.6751C2.64492 17.7688 0.866825 15.8798 0.171187 12.9735C-0.030583 12.1306 -0.0366084 11.2698 0.0630008 10.4099C0.344056 7.98365 1.12712 5.73198 2.3803 3.64927C2.95722 2.69047 3.64927 1.82589 4.52799 1.12885C5.22887 0.572898 6.0031 0.177319 6.89331 0.0463515C7.92644 -0.105644 8.88524 0.121625 9.77996 0.648089C10.7679 1.22939 11.5331 2.05121 12.189 2.98386C13.2301 4.46425 13.9402 6.10477 14.437 7.84373C14.7781 9.0379 15.0212 10.2524 14.9979 11.5021C14.9588 13.591 14.1896 15.3701 12.7165 16.8296C11.8118 17.726 10.7404 18.3394 9.52299 18.6898C9.47856 18.7026 9.43465 18.7172 9.38135 18.7339L9.38134 38Z" fill="white"/>
<path d="M24.3739 37.9992H20.638V0.0163071C20.6803 0.0430145 20.7187 0.0649816 20.7548 0.0904512C21.7022 0.759465 22.4894 1.59564 23.1996 2.51016C24.4582 4.1307 25.4431 5.91849 26.2975 7.78212C27.7023 10.8462 28.7646 14.0302 29.4979 17.3261C29.7205 18.3265 29.902 19.3348 29.9794 20.3589C30.08 21.6907 29.8097 22.95 29.1979 24.126C28.1637 26.1138 26.6043 27.4864 24.4793 28.1716C24.3597 28.2102 24.3741 28.2814 24.374 28.3645C24.3739 31.5041 24.3739 34.6437 24.3739 37.7834V37.9992Z" fill="white"/>
</svg>
