<svg width="20" height="20" viewBox="0 0 20 20" fill="none" xmlns="http://www.w3.org/2000/svg">
<path d="M9.95881 5.84316C9.14474 5.84316 8.34894 6.08456 7.67206 6.53684C6.99517 6.98912 6.46761 7.63196 6.15607 8.38407C5.84454 9.13618 5.76303 9.96378 5.92185 10.7622C6.08067 11.5607 6.47268 12.2941 7.04832 12.8697C7.62396 13.4453 8.35738 13.8374 9.15581 13.9962C9.95425 14.155 10.7818 14.0735 11.534 13.762C12.2861 13.4504 12.9289 12.9229 13.3812 12.246C13.8335 11.5691 14.0749 10.7733 14.0749 9.95922C14.0749 9.41869 13.9684 8.88345 13.7616 8.38407C13.5547 7.88469 13.2515 7.43093 12.8693 7.04872C12.4871 6.66651 12.0333 6.36333 11.534 6.15647C11.0346 5.94962 10.4993 5.84316 9.95881 5.84316ZM19.5685 2.70633C19.3709 2.17022 19.0593 1.68336 18.6553 1.27934C18.2513 0.87532 17.7644 0.563758 17.2283 0.366149C16.4922 0.110987 15.7169 -0.0126096 14.9379 0.00101531C13.6433 0.00101531 13.2782 0.00101531 9.95881 0.00101531C6.63941 0.00101531 6.27428 0.00101531 4.97971 0.00101531C4.19678 0.00866778 3.42137 0.15476 2.68933 0.432538C2.16143 0.621173 1.67972 0.920012 1.27623 1.30919C0.872745 1.69837 0.556716 2.16898 0.349152 2.68973C0.108125 3.4289 -0.00962733 4.2027 0.00061501 4.98011C0.00061501 6.27468 0.00061501 6.63981 0.00061501 9.95922C0.00061501 13.2786 0.00061501 13.6437 0.00061501 14.9383C0.0170694 15.7204 0.162882 16.4943 0.432137 17.2287C0.629747 17.7648 0.941307 18.2517 1.34533 18.6557C1.74935 19.0597 2.2362 19.3713 2.77231 19.5689C3.48045 19.8293 4.22563 19.975 4.97971 20.0004C6.27428 20.0004 6.63941 20.0004 9.95881 20.0004C13.2782 20.0004 13.6433 20.0004 14.9379 20.0004C15.7208 19.9927 16.4963 19.8467 17.2283 19.5689C17.7644 19.3713 18.2513 19.0597 18.6553 18.6557C19.0593 18.2517 19.3709 17.7648 19.5685 17.2287C19.8463 16.4967 19.9923 15.7213 20 14.9383C20 13.6437 20 13.2786 20 9.95922C20 6.63981 20 6.27468 20 4.98011C20.0005 4.1964 19.8541 3.41954 19.5685 2.68973V2.70633ZM9.95881 16.2993C9.12701 16.2993 8.30337 16.1352 7.53509 15.8163C6.76681 15.4975 6.06898 15.0303 5.48158 14.4413C4.89417 13.8524 4.42874 13.1533 4.11193 12.3842C3.79513 11.6151 3.63317 10.791 3.63536 9.95922C3.63536 8.70457 4.00762 7.47812 4.70501 6.43515C5.4024 5.39218 6.39357 4.57957 7.55303 4.1002C8.71249 3.62083 9.98811 3.49624 11.2184 3.74223C12.4487 3.98821 13.5784 4.59369 14.4644 5.48202C15.3504 6.37035 15.9529 7.5016 16.1957 8.73254C16.4384 9.96348 16.3105 11.2388 15.8281 12.397C15.3457 13.5552 14.5305 14.5442 13.4857 15.2389C12.4409 15.9335 11.2135 16.3026 9.95881 16.2993ZM16.5976 4.86394C16.2307 4.8251 15.8912 4.65186 15.6444 4.37759C15.3977 4.10333 15.2611 3.74744 15.2611 3.3785C15.2611 3.00957 15.3977 2.65368 15.6444 2.37941C15.8912 2.10515 16.2307 1.93191 16.5976 1.89307C16.9645 1.93191 17.304 2.10515 17.5508 2.37941C17.7976 2.65368 17.9341 3.00957 17.9341 3.3785C17.9341 3.74744 17.7976 4.10333 17.5508 4.37759C17.304 4.65186 16.9645 4.8251 16.5976 4.86394Z" fill="white"/>
</svg>
