<svg width="34" height="38" viewBox="0 0 34 38" fill="none" xmlns="http://www.w3.org/2000/svg">
<path d="M10.7438 37.9976C10.7438 37.9164 10.7438 37.8485 10.7438 37.7805C10.7438 30.1528 10.7422 22.5251 10.7491 14.8974C10.7494 14.5528 10.8173 14.2069 10.8718 13.8645C10.8903 13.748 10.8781 13.6756 10.7922 13.5899C8.85965 11.663 6.93055 9.73261 5.00079 7.80286C3.6496 6.45166 2.29866 5.1002 0.946098 3.75037C0.90224 3.70659 0.841852 3.67938 0.799927 3.65158C1.82412 2.62885 2.81293 1.64146 3.80984 0.645972C3.83275 0.66767 3.87446 0.705348 3.91416 0.745046C7.19887 4.0297 10.4838 7.31413 13.766 10.6013C13.8547 10.6901 13.9322 10.7073 14.0544 10.6866C14.3704 10.6332 14.69 10.5715 15.0087 10.5686C16.3916 10.5559 17.7747 10.556 19.1576 10.5686C19.4764 10.5715 19.7963 10.6321 20.112 10.6873C20.2309 10.7081 20.3019 10.6908 20.3864 10.6062C23.6576 7.33045 26.9314 4.05732 30.2043 0.783294C30.2564 0.731252 30.3016 0.672452 30.3407 0.627494C31.3462 1.63077 32.3356 2.61803 33.337 3.6173C33.2966 3.6596 33.2517 3.70861 33.2047 3.75558C29.9277 7.0329 26.6509 10.3104 23.3714 13.5853C23.2831 13.6736 23.2654 13.7491 23.2865 13.8732C23.343 14.2045 23.4081 14.5403 23.4084 14.8744C23.4151 22.5179 23.4136 30.1615 23.4136 37.805V38H19.1941V27.4622H14.969V37.9976H10.7438Z" fill="white"/>
<path d="M17.0822 7.43663e-06C19.4177 0.00435591 21.3067 1.90256 21.2984 4.23675C21.2902 6.57005 19.4045 8.45053 17.0751 8.44854C14.74 8.44655 12.8504 6.54856 12.8589 4.21381C12.8674 1.8823 14.7583 -0.00432202 17.0822 7.43663e-06Z" fill="white"/>
</svg>
