<svg width="16" height="17" viewBox="0 0 16 17" fill="none" xmlns="http://www.w3.org/2000/svg">
<path d="M9.55719 8.27714H7.41553V5.41739H9.55719C10.3469 5.41739 10.9871 6.05757 10.9871 6.84727C10.9871 7.63696 10.3469 8.27714 9.55719 8.27714Z" fill="white"/>
<path fill-rule="evenodd" clip-rule="evenodd" d="M8 16.5C12.4183 16.5 16 12.9183 16 8.5C16 4.08172 12.4183 0.5 8 0.5C3.58172 0.5 0 4.08172 0 8.5C0 12.9183 3.58172 16.5 8 16.5ZM6.05221 4.05408V8.27715L4.3064 8.27716L4.30642 9.64048L6.05226 9.64046L6.05231 10.4105H4.30641V11.7738H6.05239L6.05249 13.2743L7.41581 13.2743L7.41571 11.7738H9.23849V10.4105H7.41562L7.41557 9.64046H9.55719C11.0998 9.64046 12.3504 8.3899 12.3504 6.84727C12.3504 5.30463 11.0998 4.05408 9.55719 4.05408H6.05221Z" fill="white"/>
</svg>
