<svg width="16" height="17" viewBox="0 0 16 17" fill="none" xmlns="http://www.w3.org/2000/svg">
<path d="M7.99942 16.5C3.58438 16.5001 -0.00520345 12.91 5.66233e-06 8.49716C0.00522676 4.07381 3.58084 0.496809 8.0034 0.500002C12.4267 0.503198 15.9975 4.0813 16 8.49805C16.0025 12.9125 12.4158 16.4999 7.99942 16.5ZM10.6245 12.2532C11.0025 11.8751 11.3776 11.4999 11.7603 11.117C11.7504 11.1096 11.7325 11.0995 11.7185 11.0855C10.7639 10.1314 9.8098 9.17682 8.8545 8.22347C8.81632 8.18536 8.79958 8.14836 8.79963 8.09355C8.80119 6.65589 8.80087 5.21824 8.80087 3.78058V3.70411H7.19893V3.77428C7.19893 5.43789 7.19908 7.10149 7.19811 8.76509C7.19808 8.81028 7.21023 8.84252 7.24288 8.87511C8.35929 9.98971 9.47468 11.1053 10.5903 12.2208C10.6041 12.2345 10.6186 12.2476 10.6245 12.2532Z" fill="#FFECEC"/>
</svg>
