<svg width="39" height="38" viewBox="0 0 39 38" fill="none" xmlns="http://www.w3.org/2000/svg">
<path d="M19.5987 38C9.11295 38.0003 0.587678 29.4738 0.60005 18.9932C0.61245 8.4878 9.10452 -0.00757898 19.6081 5.07392e-06C30.1133 0.00759483 38.594 8.50559 38.6 18.9954C38.6061 29.4797 30.0876 37.9997 19.5987 38ZM25.8332 27.9139C26.7309 27.0158 27.6218 26.1247 28.5307 25.2154C28.5073 25.1979 28.4648 25.1738 28.4314 25.1404C26.1643 22.8746 23.8983 20.6075 21.6295 18.3432C21.5388 18.2527 21.499 18.1648 21.4992 18.0347C21.5029 14.6202 21.5021 11.2058 21.5021 7.79137V7.60976H17.6975V7.77642C17.6975 11.7275 17.6979 15.6785 17.6955 19.6296C17.6955 19.7369 17.7243 19.8135 17.8019 19.8909C20.4534 22.538 23.1024 25.1877 25.7519 27.8368C25.7847 27.8696 25.8192 27.9006 25.8332 27.9139Z" fill="white"/>
</svg>
