<svg width="47" height="38" viewBox="0 0 47 38" fill="none" xmlns="http://www.w3.org/2000/svg">
<path d="M37.4737 37.9997V34.0123H9.48698V37.9997H9.31593C8.06206 37.9997 6.80818 38.0005 5.55431 37.9995C4.37064 37.9986 3.4952 37.1306 3.49486 35.948C3.49317 29.992 3.49406 24.036 3.49405 18.0799C3.49405 18.0699 3.49139 18.059 3.49448 18.0501C3.58326 17.7929 3.43131 17.6789 3.23762 17.5519C2.32732 16.955 1.42657 16.3436 0.522471 15.7372C0.485362 15.7123 0.448935 15.6864 0.399902 15.6525C1.13247 14.5472 1.86274 13.4453 2.59912 12.3342C3.50542 12.9348 4.40268 13.5295 5.31247 14.1325C5.34518 14.0761 5.37306 14.0304 5.39871 13.9835C7.013 11.0302 8.62917 8.0779 10.2398 5.12257C10.652 4.36632 11.2741 3.99095 12.1362 3.99363C13.8546 3.99899 15.5731 3.99521 17.2915 3.99521C17.3502 3.99521 17.409 3.99521 17.4809 3.99521V0H29.4719V3.99521H29.6746C31.5679 3.99521 33.4612 3.99883 35.3545 3.99366C36.2592 3.99119 36.8983 4.38284 37.3047 5.19972C38.7503 8.10527 40.2084 11.0046 41.6618 13.9062C41.6863 13.955 41.7119 14.0031 41.7472 14.0712C42.62 13.4913 43.4858 12.9161 44.3603 12.3352C45.0946 13.443 45.8227 14.5414 46.5602 15.6541C46.4693 15.7159 46.3847 15.774 46.2996 15.8312C45.3753 16.4523 44.4514 17.0741 43.5257 17.6931C43.4428 17.7485 43.3877 17.7948 43.4408 17.9063C43.467 17.9614 43.4636 18.0334 43.4636 18.0977C43.4645 24.0437 43.4651 29.9898 43.4638 35.9358C43.4635 37.1273 42.5891 37.9988 41.4005 37.9995C40.1466 38.0003 38.8928 37.9997 37.6389 37.9997L37.4737 37.9997ZM8.861 15.9869H38.2205C38.1896 15.9226 38.167 15.8738 38.1429 15.8257C36.8627 13.2619 35.5818 10.6986 34.3044 8.13348C34.2538 8.03199 34.2024 7.99005 34.0819 7.99011C27.1782 7.99383 20.2746 7.99372 13.371 7.99078C13.2601 7.99073 13.2051 8.02701 13.1531 8.1225C11.7497 10.6959 10.3431 13.2676 8.93712 15.8396C8.91371 15.8824 8.89224 15.9263 8.861 15.9869ZM33.4706 21.9992C32.3706 21.9989 31.4785 22.8889 31.4755 23.9896C31.4724 25.096 32.3684 25.9974 33.4709 25.9972C34.5655 25.997 35.4655 25.0992 35.4688 24.0042C35.4722 22.8991 34.5756 21.9995 33.4706 21.9992ZM15.483 23.9982C15.4843 22.8967 14.5972 22.004 13.4964 21.9993C12.3923 21.9945 11.4896 22.8924 11.4896 23.9955C11.4897 25.0919 12.3859 25.9937 13.4788 25.9972C14.5829 26.0007 15.4816 25.1042 15.483 23.9982Z" fill="white"/>
</svg>
